<svg version="1" xmlns="http://www.w3.org/2000/svg" width="692" height="692" viewBox="0 0 519.000000 519.000000"><path d="M272.5 119.5c-9.4 9.6-17.4 17.5-17.8 17.5-.4 0-1.2-2-1.8-4.5-.6-2.4-1.7-5-2.5-5.6-.8-.6-1.4-2-1.4-3.1 0-1.7.2-1.7 1.4-.5.8.8 2.8 2 4.5 2.7 2.8 1.1 3.6 2.1 3.2 4.2-.1.9 1.3 1 2.2.2 1.3-1.4-1.6-6.2-6.6-10.7-4.1-3.7-4.9-4.9-3.7-5.6 1.4-1 1.8-7 .5-9-.8-1.4-3.2-1.4-4.8-.1-.7.6-2.7 2-4.6 3.3-1.9 1.2-4.2 3.7-5.1 5.4-1 1.8-2.2 3.8-2.8 4.5-.5.7-1.2 2.6-1.5 4.3-.7 4.1-1.7 6.5-2.8 6.5-.5 0-.9.5-.9 1.1 0 .6 1 .9 2.3.7 1.5-.2 3-1.9 4.8-5.6 1.4-2.9 2.8-5 3.1-4.6 1 .9-.1 5.2-2.2 9.2-1 2.1-2.9 5.6-4.1 8-2.6 5.1-2.5 5-8 5.7-9.8 1.2-14.2 3.2-19.4 8.8-2.8 2.9-8.2 7.2-12 9.5-7.7 4.6-10.2 7.8-21.8 27.7-7.2 12.3-7.2 12.3-14.6 7.2-5.6-3.8-12.3-4.7-17.2-2.2-6.2 3.2-17.9 12.5-20.3 16.3-3.8 6-15.7 17.8-20.2 20-2.2 1.2-8.1 3.7-13 5.7-16.7 6.8-20.9 9.3-26.3 15.5-5.5 6.3-6.6 6.8-31.1 14-10.2 3-25 7.9-26.6 8.8-.7.4-1 1.3-.5 2 .7 1.2 4.2 1.6 22.6 2.7 4.4.2 10.7.8 14 1.2 3.3.5 8.4.7 11.4.5 5.3-.3 5.3-.3 16-10.8l10.6-10.6 20.1-9.9c21.9-10.9 23.8-12.4 31.7-24.5 5.5-8.4 7-9.9 9.1-8.7.8.4 9.1 8.2 18.6 17.3 9.4 9.1 18 16.9 19.1 17.4 3.7 1.7 4.1-1.1 1.4-10.2-.5-1.4-.3-2.2.5-2.2 1.3 0 11.8 10.3 23.2 22.9 5.9 6.5 7.9 8.1 9.2 7.4 1.4-.8 1.4-1.1-.1-3.8-4.3-8-12.3-23.4-19-36.9-8.5-16.8-8.8-19.2-4.1-28.3l2.6-4.8 6.2-.6c8.2-.8 9.2-2.1 8.3-10.8-1.2-11-.9-14.3 1.3-15.8 6-4.4 12.7-8.2 13.5-7.7 1.3.8 1.1 7.3-.7 17.4-.8 5-1.3 10.5-1.1 12.2.3 2.8.9 3.4 4.3 4.4 2.2.6 6.7 1.5 10 1.9 7 .8 12.6 3.2 17.4 7.4 3.9 3.5 7 4 7 1.3 0-4.2-13.3-20.2-18-21.7-1.1-.4-2-1.5-2-2.6 0-2.8 3.8-9.9 5.3-9.9 1.9 0 8 4.3 23.4 16.4 21.1 16.7 24.3 18.4 38 21.1 3.8.7 9.9 2.5 11.1 3.4 1.2.7 1.8 2.4 3.7 10.3.4 1.9 3 6.7 4.8 8.9 1.6 2.1 27.3 14.9 29.8 14.9 3.2 0 2.1-2.7-2.3-6.1-2.4-1.8-6.8-5.8-9.9-8.9-5.2-5.2-5.9-6.6-8.9-16-4-13-5.9-15-17.2-17.9-10.9-2.8-15.2-5.1-24-12.6-4-3.4-8-6.6-9-7.1-.9-.5-4-3.2-7-5.9-2.9-2.8-6.6-6-8.2-7.3-2.6-2-2.9-2.9-2.9-7.5 0-3.2.7-6.7 1.9-9 1.1-2 8.2-10 15.8-17.7l13.9-13.9 6.1 3.2c7.1 3.7 7.7 5.3 4.1 11.7-6 10.8-6.7 12.9-5.6 16.3.6 1.7 2.1 4.1 3.2 5.3 2.7 2.9 2.9 7.6.7 14.8-2.2 7.1-1.7 11.6 1.4 11.6 1.1 0 4.4-1.3 7.2-2.9 2.8-1.6 5.9-2.7 7-2.6 2.1.4 3.1 1.3 28.9 26.7C355.9 210.7 365 219 366 219c2.5 0 2.9-3.2 1.3-10.1-2.9-13.4-2.8-14.1 2.8-16.3 5.2-2.1 9.4-2 14.5.3 5.2 2.4 5.4 3.2 5.4 25.1 0 18.3.1 19.2 1.9 21.3 1.5 1.9 4.9 1.4 11-1.8 6.2-3.4 9.2-3.2 11.9.5 4.3 5.8 12.1 7.5 20.1 4.3 5.7-2.3 6.4-1.8 12.9 8.2 3.4 5.2 6.2 9.7 6.2 10 0 1 8.1 12.8 12.3 17.8 4.8 5.8 8.3 7.8 11.6 6.6 1.3-.5 10-1.2 19.5-1.5 20-.6 20.9-.7 21.4-2.4.6-1.7-15.3-16.9-30.3-28.8-9.9-7.9-19.8-16.1-26.1-21.7-10.1-8.9-10.1-8.9-24.8-9h-13l-1.9-3.3c-1-1.7-2.1-5.1-2.3-7.4-.5-5-2.2-7.8-7.1-11.5-2-1.5-5.7-4.7-8.2-7.1-2.5-2.3-5.4-4.5-6.5-4.8-1-.4-4.1-1.9-6.8-3.5s-5.7-2.9-6.8-2.9c-4.4 0-6.8-2.3-10.6-9.9-5.2-10.7-6.7-12.6-15-18.7-4.1-3-9.2-8-11.6-11.2-2.2-3.1-4.9-6.5-6-7.5-1-1-3.5-4.1-5.7-7.1-3-4-5.7-6.2-11.3-9.1-14.5-7.7-31.3-15.5-33.3-15.5-1.3 0-7.9 6-19 17.5zm-26.1 13.8c.9 1.2 1.7 3.8 1.8 5.7l.3 3.5-6.7.3c-3.8.2-6.8-.1-6.8-.6 0-.4 1.3-2.1 2.8-3.8 1.6-1.6 3.4-3.9 4.1-5.2 1.5-2.8 2.7-2.8 4.5.1zM134.3 291.2c-16.1 1.8-29 13.6-34.7 31.8-3 9.3-3.7 14.3-4.1 28-.9 29.1 8.7 51.4 25.9 60.2 5.4 2.8 15 4.6 22.1 4.2 27.5-1.6 42.9-23.8 42.9-61.9 0-23.1-5.2-40.1-15.8-50.9-9.2-9.3-21.3-13.1-36.3-11.4zm15 15.4c4.1 2.2 9.5 11.4 11.8 20.2 2.7 10 3.3 34.9 1.3 46.7-2.4 13.4-8 23.5-14.6 26.5-12.3 5.5-23.8-4.7-27.3-24.5-.4-2.2-.9-5.1-1.2-6.5-1-4.6-.5-28.4.6-35.3 2.1-12.6 7.2-23.4 12.5-26.7 4.7-3 11.5-3.1 16.9-.4zM73.9 291.7c-.3.6-.7 2.4-.8 3.7-.4 4.6-12.2 13.4-23.1 17.2-6.3 2.3-11 5.8-15.1 11.6l-2 2.7H61.3l3.7.1v88h22.5l-.1-61.3c-.1-33.6-.2-61.4-.3-61.7-.1-.6-13-.8-13.2-.3zM450.3 293c-1.6 5.2-2.9 7.3-6 10-3.9 3.5-11.5 7.5-19 10.1-3.5 1.2-6.6 3.2-9.3 6.1-7.7 8.2-8.3 7.8 10.3 7.8h16.5l-.1 43.7v43.8l10.7.3 10.6.3V291.5h-6.6c-5.1 0-6.8.3-7.1 1.5zM202.9 308.5c-.1 2.2 0 7 0 10.7l.2 6.8-4.3.1c-2.4.1-5.3 0-6.5-.1-2.2-.1-2.3.2-2.3 7.4v7.6h12.9l-.1 26.8c-.1 29.9.6 34.4 6.2 39.7 5.8 5.6 19.8 7.7 29.5 4.5l3.3-1.1-.3-6.2c-.2-3.4-.4-6.8-.4-7.4-.1-.9-.8-1-2.3-.4-3.7 1.4-9.1.3-11.8-2.4l-2.5-2.5-.3-25.5-.4-25.5H242v-14.9h-7.2c-4 .1-8.1.1-9 0-1.5-.1-1.8-1.5-2-10.8l-.3-10.8h-10.2l-10.3-.1-.1 4.1z"/><path d="M380.3 324.6c-10.1 2.6-17.5 8.9-22.3 18.9-3.9 8.1-5.1 14.2-5.2 25-.2 27.7 14.5 45.7 37.3 45.6 22.5-.1 37-17.6 37-44.5-.1-11-.4-13.4-2.7-20.4-6.6-19.7-24.5-29.7-44.1-24.6zm16.7 18c1.7 1.5 3.8 4 4.7 5.8 4.7 8.9 5.1 28.9.9 39.1-1.8 4.2-7 9.5-9.6 9.6-6.8.4-7.7.2-11.4-3.5-4.3-4.4-6.5-10.9-7-21.1-.7-14.4 2.8-26.7 8.8-30.5 4.4-2.8 9.8-2.6 13.6.6zM243 327.4c0 .7 1.5 7.6 3.4 15.2s5.8 23.3 8.5 34.9c4.4 18 5.8 23.9 6.6 26.5.1.3.5 2 .9 3.7.8 3.7.2 3.5 14.6 3.4 4.1 0 7.8 0 8.2-.1.7 0 1.5-2.1 2.3-5.7 3.3-15.4 12-50.2 12.4-49.8.5.5 6.5 24.1 7.6 30 1.6 7.9 5.8 24.1 6.5 24.9.9 1 21.8 1.1 22.8.2.5-.6 21.1-82.1 21.2-83.7 0-.4-4.9-.7-10.8-.6h-10.9l-1.2 6.1c-.6 3.4-2.5 13.1-4.2 21.6-1.6 8.5-3.2 16.6-3.4 18-2.7 16-3.1 17.5-4 13.4-1.1-5.1-10.7-47.3-11.4-50.4-.5-1.9-1.2-4.7-1.5-6.2-.6-2.6-.7-2.6-10-2.7-10-.1-10.1 0-11.2 5.4-1.5 8-12.4 55.8-12.7 56.2-.2.2-1-3.1-1.7-7.4-.7-4.3-1.4-8.7-1.7-9.8-.2-1.1-1-5.4-1.8-9.5s-1.7-8.9-2-10.5c-3-15.5-4.5-23.7-4.5-23.9 0-.2-4.9-.3-11-.4-8.4-.1-11 .2-11 1.2z"/></svg>